<svg width="439" height="523" viewBox="0 0 439 523" fill="none" xmlns="http://www.w3.org/2000/svg">
<path d="M218.56 324.158C236.233 345.998 270.324 343.292 284.33 318.938L287.17 314H287.248L178.507 502.841C171.367 515.239 158.15 522.881 143.844 522.881H41.9276C11.1516 522.881 -8.09548 489.579 7.26839 462.912L141.839 229.348L218.56 324.158Z" fill="#626262"/>
<path d="M204.77 0C235.539 0 254.787 33.2885 239.437 59.9551L141.891 229.411L8.98075 65.1621C-12.183 39.0082 6.43132 0.000141945 40.0755 0H204.77Z" fill="#8F8F8F"/>
<path d="M398.846 0.0380859C400.995 0.0380805 403.088 0.200518 405.117 0.511719C431.98 4.79989 447.501 35.2121 433.279 59.9414L284.33 318.938C270.324 343.292 236.234 345.998 218.561 324.158L141.84 229.347L262.418 20.0693C269.559 7.67596 282.774 0.0390986 297.077 0.0390625L398.846 0.0380859Z" fill="white"/>
</svg>
